<svg width="148" height="149" viewBox="0 0 148 149" fill="none" xmlns="http://www.w3.org/2000/svg">
<g filter="url(#filter0_d_11_50)">
<circle cx="30" cy="30" r="30" transform="matrix(-1 0 0 1 104 30.2529)" fill="#F53838"/>
<circle cx="30" cy="30" r="29" transform="matrix(-1 0 0 1 104 30.2529)" stroke="#F53838" stroke-width="2"/>
</g>
<path d="M82.75 59.0029H67.925L72.4625 53.5529C72.6747 53.2976 72.7768 52.9685 72.7463 52.638C72.7158 52.3075 72.5553 52.0026 72.3 51.7904C72.0447 51.5782 71.7156 51.4762 71.3851 51.5066C71.0546 51.5371 70.7497 51.6976 70.5375 51.9529L64.2875 59.4529C64.2455 59.5126 64.2078 59.5752 64.175 59.6404C64.175 59.7029 64.175 59.7404 64.0875 59.8029C64.0308 59.9462 64.0012 60.0988 64 60.2529C64.0012 60.407 64.0308 60.5596 64.0875 60.7029C64.0875 60.7654 64.0875 60.8029 64.175 60.8654C64.2078 60.9306 64.2455 60.9933 64.2875 61.0529L70.5375 68.5529C70.655 68.694 70.8022 68.8075 70.9686 68.8853C71.1349 68.963 71.3164 69.0032 71.5 69.0029C71.7921 69.0035 72.0751 68.9018 72.3 68.7154C72.4266 68.6105 72.5312 68.4816 72.6079 68.3362C72.6846 68.1907 72.7318 68.0316 72.7469 67.8679C72.762 67.7042 72.7447 67.5391 72.6959 67.3821C72.6471 67.2251 72.5678 67.0792 72.4625 66.9529L67.925 61.5029H82.75C83.0815 61.5029 83.3995 61.3712 83.6339 61.1368C83.8683 60.9024 84 60.5844 84 60.2529C84 59.9214 83.8683 59.6034 83.6339 59.369C83.3995 59.1346 83.0815 59.0029 82.75 59.0029Z" fill="white"/>
<defs>
<filter id="filter0_d_11_50" x="0" y="0.25293" width="148" height="148" filterUnits="userSpaceOnUse" color-interpolation-filters="sRGB">
<feFlood flood-opacity="0" result="BackgroundImageFix"/>
<feColorMatrix in="SourceAlpha" type="matrix" values="0 0 0 0 0 0 0 0 0 0 0 0 0 0 0 0 0 0 127 0" result="hardAlpha"/>
<feOffset dy="14"/>
<feGaussianBlur stdDeviation="22"/>
<feColorMatrix type="matrix" values="0 0 0 0 0.0561111 0 0 0 0 0.0777333 0 0 0 0 0.133333 0 0 0 0.08 0"/>
<feBlend mode="normal" in2="BackgroundImageFix" result="effect1_dropShadow_11_50"/>
<feBlend mode="normal" in="SourceGraphic" in2="effect1_dropShadow_11_50" result="shape"/>
</filter>
</defs>
</svg>
