<svg width="60" height="61" viewBox="0 0 60 61" fill="none" xmlns="http://www.w3.org/2000/svg">
<circle cx="30" cy="30.2529" r="29" transform="rotate(-180 30 30.2529)" fill="#F53838" stroke="#F53838" stroke-width="2"/>
<path d="M21.25 31.5031L36.075 31.5031L31.5375 36.9531C31.3253 37.2083 31.2232 37.5374 31.2537 37.868C31.2842 38.1985 31.4447 38.5034 31.7 38.7156C31.9553 38.9277 32.2844 39.0298 32.6149 38.9993C32.9454 38.9689 33.2503 38.8083 33.4625 38.5531L39.7125 31.0531C39.7545 30.9934 39.7922 30.9307 39.825 30.8656C39.825 30.8031 39.825 30.7656 39.9125 30.7031C39.9692 30.5597 39.9988 30.4072 40 30.2531C39.9988 30.099 39.9692 29.9464 39.9125 29.8031C39.9125 29.7406 39.9125 29.7031 39.825 29.6406C39.7922 29.5754 39.7545 29.5127 39.7125 29.4531L33.4625 21.9531C33.345 21.812 33.1978 21.6985 33.0314 21.6207C32.8651 21.5429 32.6836 21.5028 32.5 21.5031C32.2079 21.5025 31.9249 21.6042 31.7 21.7906C31.5734 21.8955 31.4688 22.0244 31.3921 22.1698C31.3154 22.3153 31.2682 22.4744 31.2531 22.6381C31.238 22.8018 31.2553 22.9669 31.3041 23.1239C31.3529 23.2809 31.4322 23.4268 31.5375 23.5531L36.075 29.0031L21.25 29.0031C20.9185 29.0031 20.6005 29.1348 20.3661 29.3692C20.1317 29.6036 20 29.9216 20 30.2531C20 30.5846 20.1317 30.9025 20.3661 31.137C20.6005 31.3714 20.9185 31.5031 21.25 31.5031Z" fill="white"/>
</svg>
