<svg width="236" height="154" viewBox="0 0 236 154" fill="none" xmlns="http://www.w3.org/2000/svg">
<g filter="url(#filter0_f_1_51)">
<rect x="54.3083" y="54.5496" width="127.383" height="45" rx="22.5" fill="#F53838" fill-opacity="0.35"/>
</g>
<rect x="29.0618" y="37.5496" width="177.876" height="45" rx="22.5" fill="#F53838"/>
<path d="M97.328 65.7096C96.2933 65.7096 95.4133 65.5602 94.688 65.2616C93.9627 64.9629 93.4133 64.5682 93.04 64.0776C92.6667 63.5869 92.4693 63.0536 92.448 62.4776C92.448 62.3816 92.48 62.3016 92.544 62.2376C92.6187 62.1736 92.704 62.1416 92.8 62.1416H94.928C95.056 62.1416 95.1573 62.1629 95.232 62.2056C95.3173 62.2482 95.408 62.3229 95.504 62.4296C95.6427 62.6856 95.856 62.8989 96.144 63.0696C96.4427 63.2296 96.8373 63.3096 97.328 63.3096C97.904 63.3096 98.3467 63.2242 98.656 63.0536C98.9653 62.8722 99.12 62.6269 99.12 62.3176C99.12 62.0936 99.04 61.9122 98.88 61.7736C98.72 61.6242 98.464 61.4962 98.112 61.3896C97.76 61.2722 97.2533 61.1442 96.592 61.0056C95.3013 60.7496 94.336 60.3602 93.696 59.8376C93.056 59.3149 92.736 58.5682 92.736 57.5976C92.736 56.9362 92.9173 56.3496 93.28 55.8376C93.6533 55.3149 94.176 54.9096 94.848 54.6216C95.5307 54.3336 96.32 54.1896 97.216 54.1896C98.1547 54.1896 98.9653 54.3549 99.648 54.6856C100.341 55.0056 100.869 55.4109 101.232 55.9016C101.605 56.3816 101.803 56.8562 101.824 57.3256C101.824 57.4216 101.792 57.5069 101.728 57.5816C101.664 57.6456 101.584 57.6776 101.488 57.6776H99.248C99.0133 57.6776 98.832 57.5816 98.704 57.3896C98.64 57.1656 98.4747 56.9789 98.208 56.8296C97.9413 56.6696 97.6107 56.5896 97.216 56.5896C96.768 56.5896 96.4213 56.6696 96.176 56.8296C95.9307 56.9896 95.808 57.2242 95.808 57.5336C95.808 57.8429 95.968 58.0882 96.288 58.2696C96.608 58.4402 97.2053 58.6162 98.08 58.7976C99.0827 58.9789 99.8773 59.2082 100.464 59.4856C101.061 59.7522 101.499 60.1042 101.776 60.5416C102.064 60.9682 102.208 61.5122 102.208 62.1736C102.208 62.8989 102 63.5282 101.584 64.0616C101.168 64.5949 100.592 65.0056 99.856 65.2936C99.12 65.5709 98.2773 65.7096 97.328 65.7096ZM107.472 65.7096C106.171 65.7096 105.147 65.3629 104.4 64.6696C103.654 63.9656 103.27 62.9469 103.248 61.6136V61.1176C103.291 59.8482 103.686 58.8562 104.432 58.1416C105.179 57.4269 106.187 57.0696 107.456 57.0696C108.374 57.0696 109.147 57.2562 109.776 57.6296C110.416 57.9922 110.891 58.4989 111.2 59.1496C111.52 59.7896 111.68 60.5202 111.68 61.3416V61.7416C111.68 61.8589 111.638 61.9602 111.552 62.0456C111.478 62.1202 111.382 62.1576 111.264 62.1576H106.192V62.2536C106.203 62.7336 106.315 63.1229 106.528 63.4216C106.742 63.7096 107.046 63.8536 107.44 63.8536C107.696 63.8536 107.899 63.8056 108.048 63.7096C108.208 63.6029 108.358 63.4696 108.496 63.3096C108.592 63.2029 108.667 63.1389 108.72 63.1176C108.784 63.0856 108.88 63.0696 109.008 63.0696H111.104C111.2 63.0696 111.28 63.1016 111.344 63.1656C111.419 63.2189 111.456 63.2882 111.456 63.3736C111.456 63.6509 111.296 63.9762 110.976 64.3496C110.667 64.7229 110.208 65.0429 109.6 65.3096C109.003 65.5762 108.294 65.7096 107.472 65.7096ZM108.736 60.5256V60.4936C108.736 59.9816 108.624 59.5869 108.4 59.3096C108.176 59.0216 107.862 58.8776 107.456 58.8776C107.051 58.8776 106.736 59.0216 106.512 59.3096C106.299 59.5869 106.192 59.9816 106.192 60.4936V60.5256H108.736ZM113.531 65.5496C113.414 65.5496 113.312 65.5122 113.227 65.4376C113.152 65.3629 113.115 65.2669 113.115 65.1496V54.5896C113.115 54.4722 113.152 54.3762 113.227 54.3016C113.312 54.2269 113.414 54.1896 113.531 54.1896H115.531C115.648 54.1896 115.744 54.2269 115.819 54.3016C115.894 54.3762 115.931 54.4722 115.931 54.5896V65.1496C115.931 65.2562 115.894 65.3522 115.819 65.4376C115.744 65.5122 115.648 65.5496 115.531 65.5496H113.531ZM121.66 65.7096C120.358 65.7096 119.334 65.3629 118.588 64.6696C117.841 63.9656 117.457 62.9469 117.436 61.6136V61.1176C117.478 59.8482 117.873 58.8562 118.62 58.1416C119.366 57.4269 120.374 57.0696 121.644 57.0696C122.561 57.0696 123.334 57.2562 123.964 57.6296C124.604 57.9922 125.078 58.4989 125.388 59.1496C125.708 59.7896 125.868 60.5202 125.868 61.3416V61.7416C125.868 61.8589 125.825 61.9602 125.74 62.0456C125.665 62.1202 125.569 62.1576 125.452 62.1576H120.38V62.2536C120.39 62.7336 120.502 63.1229 120.716 63.4216C120.929 63.7096 121.233 63.8536 121.628 63.8536C121.884 63.8536 122.086 63.8056 122.236 63.7096C122.396 63.6029 122.545 63.4696 122.684 63.3096C122.78 63.2029 122.854 63.1389 122.908 63.1176C122.972 63.0856 123.068 63.0696 123.196 63.0696H125.292C125.388 63.0696 125.468 63.1016 125.532 63.1656C125.606 63.2189 125.644 63.2882 125.644 63.3736C125.644 63.6509 125.484 63.9762 125.164 64.3496C124.854 64.7229 124.396 65.0429 123.788 65.3096C123.19 65.5762 122.481 65.7096 121.66 65.7096ZM122.924 60.5256V60.4936C122.924 59.9816 122.812 59.5869 122.588 59.3096C122.364 59.0216 122.049 58.8776 121.644 58.8776C121.238 58.8776 120.924 59.0216 120.7 59.3096C120.486 59.5869 120.38 59.9816 120.38 60.4936V60.5256H122.924ZM131.175 65.7096C129.959 65.7096 128.972 65.3896 128.215 64.7496C127.468 64.0989 127.068 63.1976 127.015 62.0456L126.999 61.4056L127.015 60.7496C127.057 59.5976 127.457 58.6962 128.215 58.0456C128.972 57.3949 129.959 57.0696 131.175 57.0696C132.103 57.0696 132.881 57.2349 133.511 57.5656C134.14 57.8962 134.609 58.2909 134.919 58.7496C135.228 59.1976 135.393 59.6082 135.415 59.9816C135.425 60.0989 135.388 60.2002 135.303 60.2856C135.217 60.3602 135.116 60.3976 134.999 60.3976H132.855C132.737 60.3976 132.647 60.3709 132.583 60.3176C132.519 60.2642 132.46 60.1789 132.407 60.0616C132.289 59.7629 132.135 59.5442 131.943 59.4056C131.761 59.2669 131.527 59.1976 131.239 59.1976C130.417 59.1976 129.991 59.7416 129.959 60.8296L129.943 61.4376L129.959 61.9656C129.969 62.5202 130.081 62.9309 130.295 63.1976C130.508 63.4536 130.823 63.5816 131.239 63.5816C131.548 63.5816 131.788 63.5176 131.959 63.3896C132.14 63.2509 132.289 63.0269 132.407 62.7176C132.46 62.6002 132.519 62.5149 132.583 62.4616C132.647 62.4082 132.737 62.3816 132.855 62.3816H134.999C135.105 62.3816 135.201 62.4189 135.287 62.4936C135.372 62.5682 135.415 62.6589 135.415 62.7656C135.415 63.0962 135.265 63.4962 134.967 63.9656C134.679 64.4242 134.215 64.8296 133.575 65.1816C132.935 65.5336 132.135 65.7096 131.175 65.7096ZM141.155 65.5496C138.894 65.5496 137.763 64.4882 137.763 62.3656V59.4056H136.499C136.392 59.4056 136.296 59.3682 136.211 59.2936C136.136 59.2082 136.099 59.1122 136.099 59.0056V57.6296C136.099 57.5122 136.136 57.4162 136.211 57.3416C136.296 57.2669 136.392 57.2296 136.499 57.2296H137.763V54.5896C137.763 54.4722 137.8 54.3762 137.875 54.3016C137.96 54.2269 138.056 54.1896 138.163 54.1896H140.131C140.248 54.1896 140.344 54.2269 140.419 54.3016C140.494 54.3762 140.531 54.4722 140.531 54.5896V57.2296H142.531C142.648 57.2296 142.744 57.2669 142.819 57.3416C142.904 57.4162 142.947 57.5122 142.947 57.6296V59.0056C142.947 59.1229 142.904 59.2189 142.819 59.2936C142.744 59.3682 142.648 59.4056 142.531 59.4056H140.531V62.1256C140.531 62.4989 140.6 62.7816 140.739 62.9736C140.878 63.1656 141.102 63.2616 141.411 63.2616H142.675C142.792 63.2616 142.888 63.3042 142.963 63.3896C143.038 63.4642 143.075 63.5602 143.075 63.6776V65.1496C143.075 65.2562 143.038 65.3522 142.963 65.4376C142.888 65.5122 142.792 65.5496 142.675 65.5496H141.155Z" fill="white"/>
<defs>
<filter id="filter0_f_1_51" x="0.30835" y="0.549561" width="235.383" height="153" filterUnits="userSpaceOnUse" color-interpolation-filters="sRGB">
<feFlood flood-opacity="0" result="BackgroundImageFix"/>
<feBlend mode="normal" in="SourceGraphic" in2="BackgroundImageFix" result="shape"/>
<feGaussianBlur stdDeviation="27" result="effect1_foregroundBlur_1_51"/>
</filter>
</defs>
</svg>
