<svg width="150" height="46" viewBox="0 0 150 46" fill="none" xmlns="http://www.w3.org/2000/svg">
<rect x="0.5" y="1.11621" width="149" height="44" rx="22" fill="#F53838" stroke="#F53838"/>
<path d="M50.136 28.7762C49.144 28.7762 48.312 28.6322 47.64 28.3442C46.9787 28.0455 46.472 27.6615 46.12 27.1922C45.7787 26.7122 45.5973 26.2109 45.576 25.6882C45.576 25.5922 45.608 25.5122 45.672 25.4482C45.736 25.3842 45.816 25.3522 45.912 25.3522H47.336C47.4747 25.3522 47.576 25.3842 47.64 25.4482C47.7147 25.5015 47.7787 25.5709 47.832 25.6562C47.896 25.8589 48.0187 26.0615 48.2 26.2642C48.3813 26.4562 48.6267 26.6162 48.936 26.7442C49.256 26.8722 49.656 26.9362 50.136 26.9362C50.904 26.9362 51.4747 26.8082 51.848 26.5522C52.232 26.2962 52.424 25.9495 52.424 25.5122C52.424 25.2029 52.3227 24.9575 52.12 24.7762C51.9173 24.5842 51.6027 24.4135 51.176 24.2642C50.76 24.1042 50.2053 23.9389 49.512 23.7682C48.712 23.5762 48.04 23.3469 47.496 23.0802C46.9627 22.8029 46.5573 22.4562 46.28 22.0402C46.0133 21.6242 45.88 21.0962 45.88 20.4562C45.88 19.8375 46.0453 19.2882 46.376 18.8082C46.7173 18.3282 47.1973 17.9495 47.816 17.6722C48.4453 17.3949 49.192 17.2562 50.056 17.2562C50.7493 17.2562 51.3627 17.3522 51.896 17.5442C52.4293 17.7255 52.872 17.9709 53.224 18.2802C53.576 18.5789 53.8427 18.9042 54.024 19.2562C54.216 19.5975 54.3173 19.9335 54.328 20.2642C54.328 20.3495 54.296 20.4295 54.232 20.5042C54.1787 20.5682 54.0987 20.6002 53.992 20.6002H52.504C52.4187 20.6002 52.3333 20.5789 52.248 20.5362C52.1627 20.4935 52.0933 20.4135 52.04 20.2962C51.976 19.9655 51.768 19.6829 51.416 19.4482C51.064 19.2135 50.6107 19.0962 50.056 19.0962C49.48 19.0962 49.016 19.2029 48.664 19.4162C48.312 19.6295 48.136 19.9602 48.136 20.4082C48.136 20.7069 48.2213 20.9575 48.392 21.1602C48.5733 21.3522 48.856 21.5229 49.24 21.6722C49.6347 21.8215 50.152 21.9815 50.792 22.1522C51.6987 22.3549 52.44 22.5895 53.016 22.8562C53.592 23.1229 54.0133 23.4642 54.28 23.8802C54.5467 24.2855 54.68 24.8029 54.68 25.4322C54.68 26.1362 54.488 26.7389 54.104 27.2402C53.7307 27.7309 53.2027 28.1095 52.52 28.3762C51.8373 28.6429 51.0427 28.7762 50.136 28.7762ZM56.7056 28.6162C56.599 28.6162 56.5083 28.5789 56.4336 28.5042C56.359 28.4295 56.3216 28.3389 56.3216 28.2322V20.6802C56.3216 20.5735 56.359 20.4829 56.4336 20.4082C56.5083 20.3335 56.599 20.2962 56.7056 20.2962H58.0336C58.151 20.2962 58.2416 20.3335 58.3056 20.4082C58.3803 20.4829 58.4176 20.5735 58.4176 20.6802V28.2322C58.4176 28.3389 58.3803 28.4295 58.3056 28.5042C58.2416 28.5789 58.151 28.6162 58.0336 28.6162H56.7056ZM56.6416 18.9202C56.5243 18.9202 56.4283 18.8882 56.3536 18.8242C56.2896 18.7495 56.2576 18.6535 56.2576 18.5362V17.3842C56.2576 17.2775 56.2896 17.1869 56.3536 17.1122C56.4283 17.0375 56.5243 17.0002 56.6416 17.0002H58.0976C58.215 17.0002 58.311 17.0375 58.3856 17.1122C58.4603 17.1869 58.4976 17.2775 58.4976 17.3842V18.5362C58.4976 18.6535 58.4603 18.7495 58.3856 18.8242C58.311 18.8882 58.215 18.9202 58.0976 18.9202H56.6416ZM64.3004 32.1362C63.5217 32.1362 62.8817 32.0349 62.3804 31.8322C61.879 31.6295 61.4844 31.3842 61.1964 31.0962C60.9084 30.8082 60.7004 30.5202 60.5724 30.2322C60.455 29.9549 60.391 29.7362 60.3804 29.5762C60.3697 29.4695 60.4017 29.3735 60.4764 29.2882C60.5617 29.2135 60.6577 29.1762 60.7644 29.1762H62.1564C62.263 29.1762 62.3484 29.1975 62.4124 29.2402C62.4764 29.2935 62.5297 29.3842 62.5724 29.5122C62.6364 29.6509 62.7217 29.8002 62.8284 29.9602C62.935 30.1202 63.095 30.2535 63.3084 30.3602C63.5324 30.4775 63.8364 30.5362 64.2204 30.5362C64.6257 30.5362 64.967 30.4775 65.2444 30.3602C65.5217 30.2429 65.7297 30.0455 65.8684 29.7682C66.0177 29.4909 66.0924 29.1069 66.0924 28.6162V27.5282C65.8364 27.8375 65.5057 28.0882 65.1004 28.2802C64.7057 28.4722 64.215 28.5682 63.6284 28.5682C63.0524 28.5682 62.5564 28.4775 62.1404 28.2962C61.7244 28.1042 61.3777 27.8429 61.1004 27.5122C60.823 27.1709 60.6097 26.7709 60.4604 26.3122C60.3217 25.8535 60.2417 25.3469 60.2204 24.7922C60.2097 24.5042 60.2097 24.2162 60.2204 23.9282C60.2417 23.3949 60.3217 22.8989 60.4604 22.4402C60.599 21.9815 60.807 21.5815 61.0844 21.2402C61.3724 20.8882 61.7244 20.6162 62.1404 20.4242C62.5564 20.2322 63.0524 20.1362 63.6284 20.1362C64.2364 20.1362 64.7484 20.2535 65.1644 20.4882C65.5804 20.7122 65.9217 20.9949 66.1884 21.3362V20.6962C66.1884 20.5789 66.2257 20.4829 66.3004 20.4082C66.375 20.3335 66.4657 20.2962 66.5724 20.2962H67.8684C67.975 20.2962 68.0657 20.3335 68.1404 20.4082C68.215 20.4829 68.2524 20.5789 68.2524 20.6962L68.2684 28.4082C68.2684 29.1762 68.1244 29.8375 67.8364 30.3922C67.5484 30.9469 67.111 31.3735 66.5244 31.6722C65.9484 31.9815 65.207 32.1362 64.3004 32.1362ZM64.2204 26.8722C64.6577 26.8722 65.0097 26.7762 65.2764 26.5842C65.543 26.3922 65.7404 26.1415 65.8684 25.8322C65.9964 25.5229 66.071 25.2082 66.0924 24.8882C66.103 24.7495 66.1084 24.5735 66.1084 24.3602C66.1084 24.1469 66.103 23.9762 66.0924 23.8482C66.071 23.5175 65.9964 23.2029 65.8684 22.9042C65.7404 22.5949 65.543 22.3442 65.2764 22.1522C65.0097 21.9495 64.6577 21.8482 64.2204 21.8482C63.783 21.8482 63.431 21.9495 63.1644 22.1522C62.8977 22.3442 62.7057 22.6002 62.5884 22.9202C62.4817 23.2402 62.4177 23.5922 62.3964 23.9762C62.375 24.2322 62.375 24.4935 62.3964 24.7602C62.4177 25.1335 62.4817 25.4855 62.5884 25.8162C62.7057 26.1362 62.8977 26.3922 63.1644 26.5842C63.431 26.7762 63.783 26.8722 64.2204 26.8722ZM70.7838 28.6162C70.6771 28.6162 70.5864 28.5789 70.5118 28.5042C70.4371 28.4295 70.3997 28.3389 70.3997 28.2322V20.6802C70.3997 20.5735 70.4371 20.4829 70.5118 20.4082C70.5864 20.3335 70.6771 20.2962 70.7838 20.2962H72.0958C72.2024 20.2962 72.2931 20.3335 72.3678 20.4082C72.4424 20.4829 72.4798 20.5735 72.4798 20.6802V21.3362C72.7571 20.9949 73.1091 20.7122 73.5358 20.4882C73.9731 20.2535 74.5118 20.1362 75.1518 20.1362C75.8024 20.1362 76.3678 20.2855 76.8478 20.5842C77.3278 20.8722 77.6958 21.2829 77.9518 21.8162C78.2184 22.3495 78.3518 22.9895 78.3518 23.7362V28.2322C78.3518 28.3389 78.3144 28.4295 78.2398 28.5042C78.1651 28.5789 78.0744 28.6162 77.9678 28.6162H76.5598C76.4531 28.6162 76.3624 28.5789 76.2878 28.5042C76.2131 28.4295 76.1758 28.3389 76.1758 28.2322V23.8322C76.1758 23.2135 76.0211 22.7282 75.7118 22.3762C75.4131 22.0242 74.9758 21.8482 74.3998 21.8482C73.8451 21.8482 73.4024 22.0242 73.0718 22.3762C72.7411 22.7282 72.5758 23.2135 72.5758 23.8322V28.2322C72.5758 28.3389 72.5384 28.4295 72.4638 28.5042C72.3891 28.5789 72.2984 28.6162 72.1918 28.6162H70.7838ZM88.6964 28.7762C87.7684 28.7762 86.963 28.6215 86.2804 28.3122C85.5977 27.9922 85.0697 27.5069 84.6964 26.8562C84.323 26.1949 84.1364 25.3522 84.1364 24.3282V17.8162C84.1364 17.6989 84.1737 17.6029 84.2484 17.5282C84.323 17.4535 84.4137 17.4162 84.5204 17.4162H85.9764C86.0937 17.4162 86.1844 17.4535 86.2484 17.5282C86.323 17.6029 86.3604 17.6989 86.3604 17.8162V24.3282C86.3604 25.2029 86.5684 25.8535 86.9844 26.2802C87.4004 26.6962 87.971 26.9042 88.6964 26.9042C89.4217 26.9042 89.987 26.6962 90.3924 26.2802C90.8084 25.8535 91.0164 25.2029 91.0164 24.3282V17.8162C91.0164 17.6989 91.0537 17.6029 91.1284 17.5282C91.203 17.4535 91.299 17.4162 91.4164 17.4162H92.8564C92.9737 17.4162 93.0644 17.4535 93.1284 17.5282C93.203 17.6029 93.2404 17.6989 93.2404 17.8162V24.3282C93.2404 25.3522 93.0537 26.1949 92.6804 26.8562C92.3177 27.5069 91.795 27.9922 91.1124 28.3122C90.4404 28.6215 89.635 28.7762 88.6964 28.7762ZM95.8466 31.6562C95.74 31.6562 95.6493 31.6189 95.5746 31.5442C95.5 31.4695 95.4626 31.3789 95.4626 31.2722V20.6802C95.4626 20.5735 95.5 20.4829 95.5746 20.4082C95.6493 20.3335 95.74 20.2962 95.8466 20.2962H97.1106C97.228 20.2962 97.3186 20.3335 97.3826 20.4082C97.4573 20.4829 97.4946 20.5735 97.4946 20.6802V21.3202C97.7506 20.9789 98.0866 20.6962 98.5026 20.4722C98.9186 20.2482 99.436 20.1362 100.055 20.1362C100.62 20.1362 101.111 20.2269 101.527 20.4082C101.943 20.5895 102.289 20.8509 102.567 21.1922C102.844 21.5229 103.057 21.9175 103.207 22.3762C103.356 22.8349 103.441 23.3415 103.463 23.8962C103.473 24.0775 103.479 24.2642 103.479 24.4562C103.479 24.6482 103.473 24.8402 103.463 25.0322C103.452 25.5655 103.372 26.0615 103.223 26.5202C103.073 26.9682 102.855 27.3629 102.567 27.7042C102.289 28.0349 101.943 28.2962 101.527 28.4882C101.111 28.6802 100.62 28.7762 100.055 28.7762C99.4786 28.7762 98.988 28.6749 98.5826 28.4722C98.1773 28.2589 97.8466 27.9815 97.5906 27.6402V31.2722C97.5906 31.3789 97.5533 31.4695 97.4786 31.5442C97.4146 31.6189 97.324 31.6562 97.2066 31.6562H95.8466ZM99.4626 27.0642C99.9213 27.0642 100.279 26.9682 100.535 26.7762C100.791 26.5735 100.972 26.3122 101.079 25.9922C101.196 25.6722 101.265 25.3202 101.287 24.9362C101.308 24.6162 101.308 24.2962 101.287 23.9762C101.265 23.5922 101.196 23.2402 101.079 22.9202C100.972 22.6002 100.791 22.3442 100.535 22.1522C100.279 21.9495 99.9213 21.8482 99.4626 21.8482C99.0253 21.8482 98.668 21.9495 98.3906 22.1522C98.124 22.3549 97.9266 22.6162 97.7986 22.9362C97.6813 23.2455 97.612 23.5655 97.5906 23.8962C97.58 24.0882 97.5746 24.2909 97.5746 24.5042C97.5746 24.7175 97.58 24.9255 97.5906 25.1282C97.6013 25.4482 97.676 25.7575 97.8146 26.0562C97.9533 26.3442 98.156 26.5842 98.4226 26.7762C98.6893 26.9682 99.036 27.0642 99.4626 27.0642Z" fill="white"/>
</svg>
