<svg width="60" height="61" viewBox="0 0 60 61" fill="none" xmlns="http://www.w3.org/2000/svg">
<circle cx="30" cy="30" r="29" transform="matrix(-1 0 0 1 60 0.25293)" stroke="#F53838" stroke-width="2"/>
<path d="M21.25 29.0029H36.075L31.5375 23.5529C31.3253 23.2976 31.2232 22.9685 31.2537 22.638C31.2842 22.3075 31.4447 22.0026 31.7 21.7904C31.9553 21.5782 32.2844 21.4762 32.6149 21.5066C32.9454 21.5371 33.2503 21.6976 33.4625 21.9529L39.7125 29.4529C39.7545 29.5126 39.7922 29.5752 39.825 29.6404C39.825 29.7029 39.825 29.7404 39.9125 29.8029C39.9692 29.9462 39.9988 30.0988 40 30.2529C39.9988 30.407 39.9692 30.5596 39.9125 30.7029C39.9125 30.7654 39.9125 30.8029 39.825 30.8654C39.7922 30.9306 39.7545 30.9933 39.7125 31.0529L33.4625 38.5529C33.345 38.694 33.1978 38.8075 33.0314 38.8853C32.8651 38.963 32.6836 39.0032 32.5 39.0029C32.2079 39.0035 31.9249 38.9018 31.7 38.7154C31.5734 38.6105 31.4688 38.4816 31.3921 38.3362C31.3154 38.1907 31.2682 38.0316 31.2531 37.8679C31.238 37.7042 31.2553 37.5391 31.3041 37.3821C31.3529 37.2251 31.4322 37.0792 31.5375 36.9529L36.075 31.5029H21.25C20.9185 31.5029 20.6005 31.3712 20.3661 31.1368C20.1317 30.9024 20 30.5844 20 30.2529C20 29.9214 20.1317 29.6034 20.3661 29.369C20.6005 29.1346 20.9185 29.0029 21.25 29.0029Z" fill="#F53838"/>
</svg>
