<svg width="178" height="46" viewBox="0 0 178 46" fill="none" xmlns="http://www.w3.org/2000/svg">
<rect x="1.06177" y="1.54956" width="175.876" height="43" rx="21.5" stroke="#F53838" stroke-width="2"/>
<path d="M68.328 28.7096C67.2933 28.7096 66.4133 28.5602 65.688 28.2616C64.9627 27.9629 64.4133 27.5682 64.04 27.0776C63.6667 26.5869 63.4693 26.0536 63.448 25.4776C63.448 25.3816 63.48 25.3016 63.544 25.2376C63.6187 25.1736 63.704 25.1416 63.8 25.1416H65.928C66.056 25.1416 66.1573 25.1629 66.232 25.2056C66.3173 25.2482 66.408 25.3229 66.504 25.4296C66.6427 25.6856 66.856 25.8989 67.144 26.0696C67.4427 26.2296 67.8373 26.3096 68.328 26.3096C68.904 26.3096 69.3467 26.2242 69.656 26.0536C69.9653 25.8722 70.12 25.6269 70.12 25.3176C70.12 25.0936 70.04 24.9122 69.88 24.7736C69.72 24.6242 69.464 24.4962 69.112 24.3896C68.76 24.2722 68.2533 24.1442 67.592 24.0056C66.3013 23.7496 65.336 23.3602 64.696 22.8376C64.056 22.3149 63.736 21.5682 63.736 20.5976C63.736 19.9362 63.9173 19.3496 64.28 18.8376C64.6533 18.3149 65.176 17.9096 65.848 17.6216C66.5307 17.3336 67.32 17.1896 68.216 17.1896C69.1547 17.1896 69.9653 17.3549 70.648 17.6856C71.3413 18.0056 71.8693 18.4109 72.232 18.9016C72.6053 19.3816 72.8027 19.8562 72.824 20.3256C72.824 20.4216 72.792 20.5069 72.728 20.5816C72.664 20.6456 72.584 20.6776 72.488 20.6776H70.248C70.0133 20.6776 69.832 20.5816 69.704 20.3896C69.64 20.1656 69.4747 19.9789 69.208 19.8296C68.9413 19.6696 68.6107 19.5896 68.216 19.5896C67.768 19.5896 67.4213 19.6696 67.176 19.8296C66.9307 19.9896 66.808 20.2242 66.808 20.5336C66.808 20.8429 66.968 21.0882 67.288 21.2696C67.608 21.4402 68.2053 21.6162 69.08 21.7976C70.0827 21.9789 70.8773 22.2082 71.464 22.4856C72.0613 22.7522 72.4987 23.1042 72.776 23.5416C73.064 23.9682 73.208 24.5122 73.208 25.1736C73.208 25.8989 73 26.5282 72.584 27.0616C72.168 27.5949 71.592 28.0056 70.856 28.2936C70.12 28.5709 69.2773 28.7096 68.328 28.7096ZM78.4723 28.7096C77.1709 28.7096 76.1469 28.3629 75.4003 27.6696C74.6536 26.9656 74.2696 25.9469 74.2483 24.6136V24.1176C74.2909 22.8482 74.6856 21.8562 75.4323 21.1416C76.1789 20.4269 77.1869 20.0696 78.4563 20.0696C79.3736 20.0696 80.1469 20.2562 80.7763 20.6296C81.4163 20.9922 81.8909 21.4989 82.2003 22.1496C82.5203 22.7896 82.6803 23.5202 82.6803 24.3416V24.7416C82.6803 24.8589 82.6376 24.9602 82.5523 25.0456C82.4776 25.1202 82.3816 25.1576 82.2643 25.1576H77.1923V25.2536C77.2029 25.7336 77.3149 26.1229 77.5283 26.4216C77.7416 26.7096 78.0456 26.8536 78.4403 26.8536C78.6963 26.8536 78.8989 26.8056 79.0483 26.7096C79.2083 26.6029 79.3576 26.4696 79.4963 26.3096C79.5923 26.2029 79.6669 26.1389 79.7203 26.1176C79.7843 26.0856 79.8803 26.0696 80.0083 26.0696H82.1042C82.2002 26.0696 82.2803 26.1016 82.3443 26.1656C82.4189 26.2189 82.4563 26.2882 82.4563 26.3736C82.4563 26.6509 82.2963 26.9762 81.9763 27.3496C81.6669 27.7229 81.2083 28.0429 80.6003 28.3096C80.0029 28.5762 79.2936 28.7096 78.4723 28.7096ZM79.7363 23.5256V23.4936C79.7363 22.9816 79.6243 22.5869 79.4003 22.3096C79.1763 22.0216 78.8616 21.8776 78.4563 21.8776C78.0509 21.8776 77.7363 22.0216 77.5123 22.3096C77.2989 22.5869 77.1923 22.9816 77.1923 23.4936V23.5256H79.7363ZM84.5311 28.5496C84.4138 28.5496 84.3125 28.5122 84.2271 28.4376C84.1525 28.3629 84.1151 28.2669 84.1151 28.1496V17.5896C84.1151 17.4722 84.1525 17.3762 84.2271 17.3016C84.3125 17.2269 84.4138 17.1896 84.5311 17.1896H86.5311C86.6485 17.1896 86.7445 17.2269 86.8191 17.3016C86.8938 17.3762 86.9311 17.4722 86.9311 17.5896V28.1496C86.9311 28.2562 86.8938 28.3522 86.8191 28.4376C86.7445 28.5122 86.6485 28.5496 86.5311 28.5496H84.5311ZM92.6598 28.7096C91.3584 28.7096 90.3344 28.3629 89.5878 27.6696C88.8411 26.9656 88.4571 25.9469 88.4358 24.6136V24.1176C88.4784 22.8482 88.8731 21.8562 89.6198 21.1416C90.3664 20.4269 91.3744 20.0696 92.6438 20.0696C93.5611 20.0696 94.3344 20.2562 94.9638 20.6296C95.6038 20.9922 96.0784 21.4989 96.3878 22.1496C96.7078 22.7896 96.8678 23.5202 96.8678 24.3416V24.7416C96.8678 24.8589 96.8251 24.9602 96.7398 25.0456C96.6651 25.1202 96.5691 25.1576 96.4518 25.1576H91.3798V25.2536C91.3904 25.7336 91.5024 26.1229 91.7158 26.4216C91.9291 26.7096 92.2331 26.8536 92.6278 26.8536C92.8838 26.8536 93.0864 26.8056 93.2358 26.7096C93.3958 26.6029 93.5451 26.4696 93.6838 26.3096C93.7798 26.2029 93.8544 26.1389 93.9078 26.1176C93.9718 26.0856 94.0678 26.0696 94.1958 26.0696H96.2917C96.3877 26.0696 96.4678 26.1016 96.5318 26.1656C96.6064 26.2189 96.6438 26.2882 96.6438 26.3736C96.6438 26.6509 96.4838 26.9762 96.1638 27.3496C95.8544 27.7229 95.3958 28.0429 94.7878 28.3096C94.1904 28.5762 93.4811 28.7096 92.6598 28.7096ZM93.9238 23.5256V23.4936C93.9238 22.9816 93.8118 22.5869 93.5878 22.3096C93.3638 22.0216 93.0491 21.8776 92.6438 21.8776C92.2384 21.8776 91.9238 22.0216 91.6998 22.3096C91.4864 22.5869 91.3798 22.9816 91.3798 23.4936V23.5256H93.9238ZM102.175 28.7096C100.959 28.7096 99.972 28.3896 99.2146 27.7496C98.468 27.0989 98.068 26.1976 98.0146 25.0456L97.9986 24.4056L98.0146 23.7496C98.0573 22.5976 98.4573 21.6962 99.2146 21.0456C99.972 20.3949 100.959 20.0696 102.175 20.0696C103.103 20.0696 103.881 20.2349 104.511 20.5656C105.14 20.8962 105.609 21.2909 105.919 21.7496C106.228 22.1976 106.393 22.6082 106.415 22.9816C106.425 23.0989 106.388 23.2002 106.303 23.2856C106.217 23.3602 106.116 23.3976 105.999 23.3976H103.855C103.737 23.3976 103.647 23.3709 103.583 23.3176C103.519 23.2642 103.46 23.1789 103.407 23.0616C103.289 22.7629 103.135 22.5442 102.943 22.4056C102.761 22.2669 102.527 22.1976 102.239 22.1976C101.417 22.1976 100.991 22.7416 100.959 23.8296L100.943 24.4376L100.959 24.9656C100.969 25.5202 101.081 25.9309 101.295 26.1976C101.508 26.4536 101.823 26.5816 102.239 26.5816C102.548 26.5816 102.788 26.5176 102.959 26.3896C103.14 26.2509 103.289 26.0269 103.407 25.7176C103.46 25.6002 103.519 25.5149 103.583 25.4616C103.647 25.4082 103.737 25.3816 103.855 25.3816H105.999C106.105 25.3816 106.201 25.4189 106.287 25.4936C106.372 25.5682 106.415 25.6589 106.415 25.7656C106.415 26.0962 106.265 26.4962 105.967 26.9656C105.679 27.4242 105.215 27.8296 104.575 28.1816C103.935 28.5336 103.135 28.7096 102.175 28.7096ZM112.155 28.5496C109.894 28.5496 108.763 27.4882 108.763 25.3656V22.4056H107.499C107.392 22.4056 107.296 22.3682 107.211 22.2936C107.136 22.2082 107.099 22.1122 107.099 22.0056V20.6296C107.099 20.5122 107.136 20.4162 107.211 20.3416C107.296 20.2669 107.392 20.2296 107.499 20.2296H108.763V17.5896C108.763 17.4722 108.8 17.3762 108.875 17.3016C108.96 17.2269 109.056 17.1896 109.163 17.1896H111.131C111.248 17.1896 111.344 17.2269 111.419 17.3016C111.494 17.3762 111.531 17.4722 111.531 17.5896V20.2296H113.531C113.648 20.2296 113.744 20.2669 113.819 20.3416C113.904 20.4162 113.947 20.5122 113.947 20.6296V22.0056C113.947 22.1229 113.904 22.2189 113.819 22.2936C113.744 22.3682 113.648 22.4056 113.531 22.4056H111.531V25.1256C111.531 25.4989 111.6 25.7816 111.739 25.9736C111.878 26.1656 112.102 26.2616 112.411 26.2616H113.675C113.792 26.2616 113.888 26.3042 113.963 26.3896C114.038 26.4642 114.075 26.5602 114.075 26.6776V28.1496C114.075 28.2562 114.038 28.3522 113.963 28.4376C113.888 28.5122 113.792 28.5496 113.675 28.5496H112.155Z" fill="#F53838"/>
</svg>
