<svg width="148" height="149" viewBox="0 0 148 149" fill="none" xmlns="http://www.w3.org/2000/svg">
<g filter="url(#filter0_d_11_50)">
<circle cx="74" cy="60.2529" r="30" transform="rotate(-180 74 60.2529)" fill="#F53838"/>
<circle cx="74" cy="60.2529" r="29" transform="rotate(-180 74 60.2529)" stroke="#F53838" stroke-width="2"/>
</g>
<path d="M82.75 61.5031L67.925 61.5031L72.4625 66.9531C72.6747 67.2083 72.7768 67.5374 72.7463 67.868C72.7158 68.1985 72.5553 68.5034 72.3 68.7156C72.0447 68.9277 71.7156 69.0298 71.3851 68.9993C71.0546 68.9689 70.7497 68.8083 70.5375 68.5531L64.2875 61.0531C64.2455 60.9934 64.2078 60.9307 64.175 60.8656C64.175 60.8031 64.175 60.7656 64.0875 60.7031C64.0308 60.5597 64.0012 60.4072 64 60.2531C64.0012 60.099 64.0308 59.9464 64.0875 59.8031C64.0875 59.7406 64.0875 59.7031 64.175 59.6406C64.2078 59.5754 64.2455 59.5127 64.2875 59.4531L70.5375 51.9531C70.655 51.812 70.8022 51.6985 70.9686 51.6207C71.1349 51.5429 71.3164 51.5028 71.5 51.5031C71.7921 51.5025 72.0751 51.6042 72.3 51.7906C72.4266 51.8955 72.5312 52.0244 72.6079 52.1698C72.6846 52.3153 72.7318 52.4744 72.7469 52.6381C72.762 52.8018 72.7447 52.9669 72.6959 53.1239C72.6471 53.2809 72.5678 53.4268 72.4625 53.5531L67.925 59.0031L82.75 59.0031C83.0815 59.0031 83.3995 59.1348 83.6339 59.3692C83.8683 59.6036 84 59.9216 84 60.2531C84 60.5846 83.8683 60.9025 83.6339 61.137C83.3995 61.3714 83.0815 61.5031 82.75 61.5031Z" fill="white"/>
<defs>
<filter id="filter0_d_11_50" x="0" y="0.25293" width="148" height="148" filterUnits="userSpaceOnUse" color-interpolation-filters="sRGB">
<feFlood flood-opacity="0" result="BackgroundImageFix"/>
<feColorMatrix in="SourceAlpha" type="matrix" values="0 0 0 0 0 0 0 0 0 0 0 0 0 0 0 0 0 0 127 0" result="hardAlpha"/>
<feOffset dy="14"/>
<feGaussianBlur stdDeviation="22"/>
<feColorMatrix type="matrix" values="0 0 0 0 0.0561111 0 0 0 0 0.0777333 0 0 0 0 0.133333 0 0 0 0.08 0"/>
<feBlend mode="normal" in2="BackgroundImageFix" result="effect1_dropShadow_11_50"/>
<feBlend mode="normal" in="SourceGraphic" in2="effect1_dropShadow_11_50" result="shape"/>
</filter>
</defs>
</svg>
