<svg width="150" height="46" viewBox="0 0 150 46" fill="none" xmlns="http://www.w3.org/2000/svg">
<rect x="0.5" y="1.11621" width="149" height="44" rx="22" stroke="#F53855"/>
<path d="M50.152 28.7762C49.192 28.7762 48.3707 28.6322 47.688 28.3442C47.0053 28.0562 46.488 27.6775 46.136 27.2082C45.784 26.7389 45.5973 26.2269 45.576 25.6722C45.576 25.5869 45.608 25.5122 45.672 25.4482C45.736 25.3735 45.816 25.3362 45.912 25.3362H47.368C47.4853 25.3362 47.5813 25.3629 47.656 25.4162C47.7307 25.4695 47.8 25.5442 47.864 25.6402C47.9707 26.0029 48.2107 26.3069 48.584 26.5522C48.968 26.7975 49.4907 26.9202 50.152 26.9202C50.8987 26.9202 51.4587 26.7975 51.832 26.5522C52.216 26.2962 52.408 25.9495 52.408 25.5122C52.408 25.2242 52.312 24.9842 52.12 24.7922C51.928 24.6002 51.6347 24.4349 51.24 24.2962C50.856 24.1469 50.28 23.9709 49.512 23.7682C48.2533 23.4695 47.3307 23.0749 46.744 22.5842C46.1573 22.0935 45.864 21.3895 45.864 20.4722C45.864 19.8535 46.0347 19.3042 46.376 18.8242C46.7173 18.3335 47.2027 17.9495 47.832 17.6722C48.472 17.3949 49.2133 17.2562 50.056 17.2562C50.9413 17.2562 51.704 17.4109 52.344 17.7202C52.9947 18.0295 53.4853 18.4189 53.816 18.8882C54.1573 19.3469 54.3387 19.8055 54.36 20.2642C54.36 20.3495 54.328 20.4295 54.264 20.5042C54.2 20.5682 54.12 20.6002 54.024 20.6002H52.504C52.2693 20.6002 52.1093 20.5042 52.024 20.3122C51.9707 19.9709 51.7627 19.6882 51.4 19.4642C51.0373 19.2295 50.5893 19.1122 50.056 19.1122C49.4693 19.1122 49.0053 19.2242 48.664 19.4482C48.3333 19.6722 48.168 19.9975 48.168 20.4242C48.168 20.7122 48.2533 20.9522 48.424 21.1442C48.5947 21.3362 48.8613 21.5069 49.224 21.6562C49.5867 21.7949 50.1147 21.9549 50.808 22.1362C51.7573 22.3495 52.5093 22.5895 53.064 22.8562C53.6293 23.1229 54.0453 23.4589 54.312 23.8642C54.5787 24.2695 54.712 24.7869 54.712 25.4162C54.712 26.1095 54.52 26.7122 54.136 27.2242C53.7627 27.7255 53.2293 28.1095 52.536 28.3762C51.8533 28.6429 51.0587 28.7762 50.152 28.7762ZM56.6573 18.9362C56.5506 18.9362 56.4599 18.8989 56.3853 18.8242C56.3106 18.7495 56.2733 18.6589 56.2733 18.5522V17.3842C56.2733 17.2669 56.3106 17.1709 56.3853 17.0962C56.4599 17.0215 56.5506 16.9842 56.6573 16.9842H58.1293C58.2466 16.9842 58.3426 17.0215 58.4173 17.0962C58.4919 17.1709 58.5293 17.2669 58.5293 17.3842V18.5522C58.5293 18.6589 58.4866 18.7495 58.4013 18.8242C58.3266 18.8989 58.2359 18.9362 58.1293 18.9362H56.6573ZM56.7213 28.6162C56.6146 28.6162 56.5239 28.5789 56.4493 28.5042C56.3746 28.4295 56.3372 28.3389 56.3372 28.2322V20.6802C56.3372 20.5629 56.3746 20.4722 56.4493 20.4082C56.5239 20.3335 56.6146 20.2962 56.7213 20.2962H58.0813C58.1879 20.2962 58.2786 20.3335 58.3533 20.4082C58.4279 20.4829 58.4653 20.5735 58.4653 20.6802V28.2322C58.4653 28.3389 58.4279 28.4295 58.3533 28.5042C58.2786 28.5789 58.1879 28.6162 58.0813 28.6162H56.7213ZM64.3316 32.1362C63.3823 32.1362 62.6143 31.9762 62.0276 31.6562C61.441 31.3469 61.025 30.9895 60.7796 30.5842C60.5343 30.1789 60.4116 29.8322 60.4116 29.5442C60.4116 29.4375 60.449 29.3469 60.5236 29.2722C60.5983 29.2082 60.689 29.1762 60.7956 29.1762H62.2196C62.3156 29.1762 62.3956 29.1975 62.4596 29.2402C62.5343 29.2935 62.593 29.3842 62.6356 29.5122C62.753 29.7895 62.929 30.0242 63.1636 30.2162C63.3983 30.4189 63.761 30.5202 64.2516 30.5202C64.8916 30.5202 65.361 30.3762 65.6596 30.0882C65.9583 29.8109 66.1076 29.3202 66.1076 28.6162V27.5282C65.5316 28.2109 64.7156 28.5522 63.6596 28.5522C62.5503 28.5522 61.713 28.2162 61.1476 27.5442C60.593 26.8722 60.2943 25.9549 60.2516 24.7922L60.2356 24.3602L60.2516 23.9282C60.2943 22.7869 60.5983 21.8695 61.1636 21.1762C61.729 20.4829 62.561 20.1362 63.6596 20.1362C64.225 20.1362 64.721 20.2429 65.1476 20.4562C65.5743 20.6695 65.9263 20.9575 66.2036 21.3202V20.6962C66.2036 20.5789 66.241 20.4829 66.3156 20.4082C66.401 20.3335 66.497 20.2962 66.6036 20.2962H67.9156C68.0223 20.2962 68.113 20.3335 68.1876 20.4082C68.2623 20.4829 68.2996 20.5789 68.2996 20.6962L68.3156 28.4082C68.3156 29.5922 67.985 30.5095 67.3236 31.1602C66.6623 31.8109 65.665 32.1362 64.3316 32.1362ZM64.2676 26.8562C64.865 26.8562 65.313 26.6642 65.6116 26.2802C65.9103 25.8962 66.0756 25.4269 66.1076 24.8722C66.1183 24.7869 66.1236 24.6162 66.1236 24.3602C66.1236 24.1042 66.1183 23.9335 66.1076 23.8482C66.0756 23.2935 65.9103 22.8242 65.6116 22.4402C65.313 22.0562 64.865 21.8642 64.2676 21.8642C63.1156 21.8642 62.5076 22.5682 62.4436 23.9762L62.4276 24.3602C62.4276 26.0242 63.041 26.8562 64.2676 26.8562ZM70.815 28.6162C70.7083 28.6162 70.6177 28.5789 70.543 28.5042C70.4683 28.4295 70.431 28.3389 70.431 28.2322V20.6802C70.431 20.5629 70.4683 20.4722 70.543 20.4082C70.6177 20.3335 70.7083 20.2962 70.815 20.2962H72.143C72.2603 20.2962 72.351 20.3335 72.415 20.4082C72.4897 20.4722 72.527 20.5629 72.527 20.6802V21.3362C73.1777 20.5362 74.0683 20.1362 75.199 20.1362C76.1803 20.1362 76.959 20.4562 77.535 21.0962C78.111 21.7362 78.399 22.6162 78.399 23.7362V28.2322C78.399 28.3389 78.3617 28.4295 78.287 28.5042C78.223 28.5789 78.1323 28.6162 78.015 28.6162H76.575C76.4683 28.6162 76.3777 28.5789 76.303 28.5042C76.2283 28.4295 76.191 28.3389 76.191 28.2322V23.8322C76.191 23.2135 76.0363 22.7335 75.727 22.3922C75.4283 22.0402 74.9963 21.8642 74.431 21.8642C73.887 21.8642 73.4497 22.0402 73.119 22.3922C72.7883 22.7442 72.623 23.2242 72.623 23.8322V28.2322C72.623 28.3389 72.5857 28.4295 72.511 28.5042C72.447 28.5789 72.3563 28.6162 72.239 28.6162H70.815ZM88.7436 28.7762C87.293 28.7762 86.1676 28.4082 85.3676 27.6722C84.5676 26.9362 84.1676 25.8215 84.1676 24.3282V17.8162C84.1676 17.6989 84.1996 17.6029 84.2636 17.5282C84.3383 17.4535 84.4343 17.4162 84.5516 17.4162H86.0236C86.141 17.4162 86.237 17.4535 86.3116 17.5282C86.3863 17.6029 86.4236 17.6989 86.4236 17.8162V24.3282C86.4236 25.1709 86.621 25.8055 87.0156 26.2322C87.421 26.6589 87.9916 26.8722 88.7276 26.8722C89.4636 26.8722 90.029 26.6589 90.4236 26.2322C90.829 25.8055 91.0316 25.1709 91.0316 24.3282V17.8162C91.0316 17.6989 91.069 17.6029 91.1436 17.5282C91.2183 17.4535 91.3143 17.4162 91.4316 17.4162H92.9036C93.021 17.4162 93.1116 17.4535 93.1756 17.5282C93.2503 17.6029 93.2876 17.6989 93.2876 17.8162V24.3282C93.2876 25.8215 92.8876 26.9362 92.0876 27.6722C91.2983 28.4082 90.1836 28.7762 88.7436 28.7762ZM95.8935 31.6562C95.7868 31.6562 95.6962 31.6189 95.6215 31.5442C95.5468 31.4802 95.5095 31.3895 95.5095 31.2722V20.6802C95.5095 20.5629 95.5468 20.4722 95.6215 20.4082C95.6962 20.3335 95.7868 20.2962 95.8935 20.2962H97.1735C97.2908 20.2962 97.3868 20.3335 97.4615 20.4082C97.5362 20.4829 97.5735 20.5735 97.5735 20.6802V21.3202C98.1388 20.5309 98.9868 20.1362 100.118 20.1362C101.195 20.1362 102.022 20.4775 102.598 21.1602C103.174 21.8322 103.483 22.7389 103.526 23.8802C103.536 24.0082 103.542 24.2002 103.542 24.4562C103.542 24.7122 103.536 24.9042 103.526 25.0322C103.494 26.1522 103.184 27.0589 102.598 27.7522C102.022 28.4349 101.195 28.7762 100.118 28.7762C99.0508 28.7762 98.2348 28.3975 97.6695 27.6402V31.2722C97.6695 31.3895 97.6322 31.4802 97.5575 31.5442C97.4935 31.6189 97.4028 31.6562 97.2855 31.6562H95.8935ZM99.5095 27.0482C100.651 27.0482 101.259 26.3442 101.334 24.9362C101.344 24.8295 101.35 24.6695 101.35 24.4562C101.35 24.2429 101.344 24.0829 101.334 23.9762C101.259 22.5682 100.651 21.8642 99.5095 21.8642C98.9015 21.8642 98.4482 22.0615 98.1495 22.4562C97.8508 22.8509 97.6908 23.3309 97.6695 23.8962C97.6588 24.0242 97.6535 24.2269 97.6535 24.5042C97.6535 24.7815 97.6588 24.9895 97.6695 25.1282C97.6908 25.6615 97.8562 26.1149 98.1655 26.4882C98.4748 26.8615 98.9228 27.0482 99.5095 27.0482Z" fill="#F53855"/>
</svg>
